<svg width="17" height="16" viewBox="0 0 17 16" fill="none" xmlns="http://www.w3.org/2000/svg">
<g clip-path="url(#clip0_7591_1436)">
<path d="M8.12535 6.00002H9.45868V4.00002H11.4587V2.66669H9.45868V0.666687H8.12535V2.66669H6.12535V4.00002H8.12535V6.00002ZM5.45868 12C4.72535 12 4.13201 12.6 4.13201 13.3334C4.13201 14.0667 4.72535 14.6667 5.45868 14.6667C6.19201 14.6667 6.79201 14.0667 6.79201 13.3334C6.79201 12.6 6.19201 12 5.45868 12ZM12.1253 12C11.392 12 10.7987 12.6 10.7987 13.3334C10.7987 14.0667 11.392 14.6667 12.1253 14.6667C12.8587 14.6667 13.4587 14.0667 13.4587 13.3334C13.4587 12.6 12.8587 12 12.1253 12ZM5.57201 9.83335L5.59201 9.75335L6.19201 8.66669H11.1587C11.6587 8.66669 12.0987 8.39335 12.3253 7.98002L14.8987 3.30669L13.7387 2.66669H13.732L12.9987 4.00002L11.1587 7.33335H6.47868L6.39201 7.15335L4.89868 4.00002L4.26535 2.66669L3.63868 1.33335H1.45868V2.66669H2.79201L5.19201 7.72669L4.29201 9.36002C4.18535 9.54669 4.12535 9.76669 4.12535 10C4.12535 10.7334 4.72535 11.3334 5.45868 11.3334H13.4587V10H5.73868C5.65201 10 5.57201 9.92669 5.57201 9.83335Z" fill="white"/>
</g>
<defs>
<clipPath id="clip0_7591_1436">
<rect width="16" height="16" fill="white" transform="translate(0.791992)"/>
</clipPath>
</defs>
</svg>
