<svg width="55" height="17" viewBox="0 0 55 17" fill="none" xmlns="http://www.w3.org/2000/svg">
<path d="M11.02 11.86C11.02 12.6733 10.82 13.4133 10.42 14.08C10.02 14.7333 9.42 15.2533 8.62 15.64C7.82 16.0133 6.81333 16.2 5.6 16.2C5.04 16.2 4.52 16.1667 4.04 16.1C3.56 16.0333 3.1 15.94 2.66 15.82C2.23333 15.6867 1.81333 15.52 1.4 15.32V12.22C2.12 12.5533 2.85333 12.8333 3.6 13.06C4.36 13.2867 5.08667 13.4 5.78 13.4C6.22 13.4 6.57333 13.3467 6.84 13.24C7.12 13.12 7.32 12.9667 7.44 12.78C7.57333 12.58 7.64 12.3533 7.64 12.1C7.64 11.7933 7.53333 11.5333 7.32 11.32C7.12 11.0933 6.82 10.88 6.42 10.68C6.02 10.4667 5.53333 10.2267 4.96 9.96C4.53333 9.77333 4.11333 9.56 3.7 9.32C3.3 9.06667 2.93333 8.78 2.6 8.46C2.28 8.12667 2.02 7.73333 1.82 7.28C1.63333 6.81333 1.54 6.26667 1.54 5.64C1.54 4.74667 1.74667 4 2.16 3.4C2.58667 2.78667 3.18 2.32 3.94 2C4.7 1.68 5.59333 1.52 6.62 1.52C7.46 1.52 8.23333 1.61333 8.94 1.8C9.64667 1.98667 10.3333 2.22667 11 2.52L9.92 5.18C9.28 4.9 8.68 4.68667 8.12 4.54C7.57333 4.38 7.04 4.3 6.52 4.3C6.16 4.3 5.86 4.35333 5.62 4.46C5.38 4.55333 5.2 4.69333 5.08 4.88C4.96 5.05333 4.9 5.26 4.9 5.5C4.9 5.78 4.99333 6.02667 5.18 6.24C5.36667 6.44 5.66 6.64667 6.06 6.86C6.46 7.07333 6.98667 7.33333 7.64 7.64C8.34667 7.96 8.95333 8.30667 9.46 8.68C9.96667 9.05333 10.3533 9.49333 10.62 10C10.8867 10.4933 11.02 11.1133 11.02 11.86ZM25.3895 16H21.9895V10H16.8695V16H13.4495V1.72H16.8695V7.18H21.9895V1.72H25.3895V16ZM41.8825 8.84C41.8825 9.94667 41.7492 10.9533 41.4825 11.86C41.2158 12.7533 40.8025 13.5267 40.2425 14.18C39.6825 14.8333 38.9692 15.3333 38.1025 15.68C37.2358 16.0267 36.2092 16.2 35.0225 16.2C33.8492 16.2 32.8292 16.0267 31.9625 15.68C31.0958 15.32 30.3825 14.82 29.8225 14.18C29.2625 13.5267 28.8425 12.7467 28.5625 11.84C28.2958 10.9333 28.1625 9.92667 28.1625 8.82C28.1625 7.34 28.4025 6.05333 28.8825 4.96C29.3758 3.86667 30.1292 3.02 31.1425 2.42C32.1692 1.80667 33.4692 1.5 35.0425 1.5C36.6292 1.5 37.9225 1.80667 38.9225 2.42C39.9358 3.02 40.6825 3.87333 41.1625 4.98C41.6425 6.07333 41.8825 7.36 41.8825 8.84ZM31.7425 8.84C31.7425 9.77333 31.8558 10.58 32.0825 11.26C32.3092 11.9267 32.6625 12.44 33.1425 12.8C33.6358 13.16 34.2625 13.34 35.0225 13.34C35.8092 13.34 36.4425 13.16 36.9225 12.8C37.4025 12.44 37.7492 11.9267 37.9625 11.26C38.1892 10.58 38.3025 9.77333 38.3025 8.84C38.3025 7.42667 38.0492 6.32 37.5425 5.52C37.0492 4.72 36.2158 4.32 35.0425 4.32C34.2692 4.32 33.6358 4.50667 33.1425 4.88C32.6625 5.24 32.3092 5.76 32.0825 6.44C31.8558 7.10667 31.7425 7.90667 31.7425 8.84ZM49.4005 1.72C51.2271 1.72 52.5738 2.12 53.4405 2.92C54.3205 3.70667 54.7605 4.80667 54.7605 6.22C54.7605 6.86 54.6671 7.47333 54.4805 8.06C54.2938 8.63333 53.9805 9.14667 53.5405 9.6C53.1138 10.0533 52.5471 10.4133 51.8405 10.68C51.1471 10.9467 50.2871 11.08 49.2605 11.08H48.0605V16H44.6605V1.72H49.4005ZM49.2805 4.5H48.0605V8.3H48.9605C49.4271 8.3 49.8338 8.23333 50.1805 8.1C50.5405 7.96667 50.8205 7.75333 51.0205 7.46C51.2205 7.16667 51.3205 6.78667 51.3205 6.32C51.3205 5.73333 51.1538 5.28667 50.8205 4.98C50.4871 4.66 49.9738 4.5 49.2805 4.5Z" fill="white"/>
</svg>
