<svg xmlns="http://www.w3.org/2000/svg" width="16" height="17" viewBox="0 0 16 17" fill="none">
  <g clip-path="url(#clip0_3830_185)">
    <path d="M7.33329 6.85232H8.66663V4.85232H10.6666V3.51898H8.66663V1.51898H7.33329V3.51898H5.33329V4.85232H7.33329V6.85232ZM4.66663 12.8523C3.93329 12.8523 3.33996 13.4523 3.33996 14.1856C3.33996 14.919 3.93329 15.519 4.66663 15.519C5.39996 15.519 5.99996 14.919 5.99996 14.1856C5.99996 13.4523 5.39996 12.8523 4.66663 12.8523ZM11.3333 12.8523C10.6 12.8523 10.0066 13.4523 10.0066 14.1856C10.0066 14.919 10.6 15.519 11.3333 15.519C12.0666 15.519 12.6666 14.919 12.6666 14.1856C12.6666 13.4523 12.0666 12.8523 11.3333 12.8523ZM4.77996 10.6856L4.79996 10.6056L5.39996 9.51898H10.3666C10.8666 9.51898 11.3066 9.24565 11.5333 8.83232L14.1066 4.15898L12.9466 3.51898H12.94L12.2066 4.85232L10.3666 8.18565H5.68663L5.59996 8.00565L4.10663 4.85232L3.47329 3.51898L2.84663 2.18565H0.666626V3.51898H1.99996L4.39996 8.57898L3.49996 10.2123C3.39329 10.399 3.33329 10.619 3.33329 10.8523C3.33329 11.5856 3.93329 12.1856 4.66663 12.1856H12.6666V10.8523H4.94663C4.85996 10.8523 4.77996 10.779 4.77996 10.6856Z" fill="white"/>
  </g>
  <defs>
    <clipPath id="clip0_3830_185">
      <rect width="16" height="16" fill="white" transform="translate(0 0.852295)"/>
    </clipPath>
  </defs>
</svg>