<svg width="17" height="16" viewBox="0 0 17 16" fill="none" xmlns="http://www.w3.org/2000/svg">
<g clip-path="url(#clip0_4133_271)">
<path d="M8.12531 5.99999H9.45865V3.99999H11.4586V2.66666H9.45865V0.666656H8.12531V2.66666H6.12532V3.99999H8.12531V5.99999ZM5.45865 12C4.72532 12 4.13198 12.6 4.13198 13.3333C4.13198 14.0667 4.72532 14.6667 5.45865 14.6667C6.19198 14.6667 6.79198 14.0667 6.79198 13.3333C6.79198 12.6 6.19198 12 5.45865 12ZM12.1253 12C11.392 12 10.7986 12.6 10.7986 13.3333C10.7986 14.0667 11.392 14.6667 12.1253 14.6667C12.8586 14.6667 13.4586 14.0667 13.4586 13.3333C13.4586 12.6 12.8586 12 12.1253 12ZM5.57198 9.83332L5.59198 9.75332L6.19198 8.66666H11.1586C11.6586 8.66666 12.0986 8.39332 12.3253 7.97999L14.8986 3.30666L13.7386 2.66666H13.732L12.9986 3.99999L11.1586 7.33332H6.47865L6.39198 7.15332L4.89865 3.99999L4.26532 2.66666L3.63865 1.33332H1.45865V2.66666H2.79198L5.19198 7.72666L4.29198 9.35999C4.18532 9.54666 4.12532 9.76666 4.12532 9.99999C4.12532 10.7333 4.72532 11.3333 5.45865 11.3333H13.4586V9.99999H5.73865C5.65198 9.99999 5.57198 9.92666 5.57198 9.83332Z" fill="white"/>
</g>
<defs>
<clipPath id="clip0_4133_271">
<rect width="16" height="16" fill="white" transform="translate(0.791992)"/>
</clipPath>
</defs>
</svg>
