<svg width="15" height="15" viewBox="0 0 15 15" fill="none" xmlns="http://www.w3.org/2000/svg">
<path d="M7.33332 6.00002H8.66666V4.00002H10.6667V2.66669H8.66666V0.666687H7.33332V2.66669H5.33332V4.00002H7.33332V6.00002ZM4.66666 12C3.93332 12 3.33999 12.6 3.33999 13.3334C3.33999 14.0667 3.93332 14.6667 4.66666 14.6667C5.39999 14.6667 5.99999 14.0667 5.99999 13.3334C5.99999 12.6 5.39999 12 4.66666 12ZM11.3333 12C10.6 12 10.0067 12.6 10.0067 13.3334C10.0067 14.0667 10.6 14.6667 11.3333 14.6667C12.0667 14.6667 12.6667 14.0667 12.6667 13.3334C12.6667 12.6 12.0667 12 11.3333 12ZM4.77999 9.83335L4.79999 9.75335L5.39999 8.66669H10.3667C10.8667 8.66669 11.3067 8.39335 11.5333 7.98002L14.1067 3.30669L12.9467 2.66669H12.94L12.2067 4.00002L10.3667 7.33335H5.68666L5.59999 7.15335L4.10666 4.00002L3.47332 2.66669L2.84666 1.33335H0.666656V2.66669H1.99999L4.39999 7.72669L3.49999 9.36002C3.39332 9.54669 3.33332 9.76669 3.33332 10C3.33332 10.7334 3.93332 11.3334 4.66666 11.3334H12.6667V10H4.94666C4.85999 10 4.77999 9.92669 4.77999 9.83335Z" fill="white"/>
</svg>
