<svg width="21" height="24" viewBox="0 0 21 24" fill="none" xmlns="http://www.w3.org/2000/svg">
<path d="M10.292 -1.90735e-05C9.4822 -1.90735e-05 8.7289 0.211519 8.0321 0.634596C7.33531 1.03844 6.77975 1.59613 6.36544 2.30767C5.96996 3.01921 5.77222 3.78844 5.77222 4.61537V5.53844H1.30894L1.25244 6.40383L0.291992 24H20.292L19.3315 6.40383L19.275 5.53844H14.8118V4.61537C14.8118 3.78844 14.6046 3.01921 14.1903 2.30767C13.7948 1.59613 13.2487 1.03844 12.5519 0.634596C11.8551 0.211519 11.1018 -1.90735e-05 10.292 -1.90735e-05ZM10.292 1.84613C11.0453 1.84613 11.6856 2.11537 12.2129 2.65383C12.7402 3.19229 13.0039 3.84613 13.0039 4.61537V5.53844H7.58013V4.61537C7.58013 3.84613 7.84378 3.19229 8.37109 2.65383C8.89839 2.11537 9.5387 1.84613 10.292 1.84613ZM3.00386 7.3846H5.77222V10.1538H7.58013V7.3846H13.0039V10.1538H14.8118V7.3846H17.5801L18.3711 22.1538H2.2129L3.00386 7.3846Z" fill="white"/>
</svg>
