<svg width="182" height="112" viewBox="0 0 182 112" fill="none" xmlns="http://www.w3.org/2000/svg">
<rect width="182" height="112" fill="#A7A7A7" fill-opacity="0.5"/>
<path opacity="0.5" d="M91 39.3333C81.795 39.3333 74.3333 46.795 74.3333 56C74.3333 56.59 74.3633 57.1722 74.4233 57.7467C75.0067 58.2533 78.2783 61 81 61C83.02 61 85.3433 59.4867 86.645 58.5L86.6617 58.485C86.1927 57.6661 85.965 56.7312 86.0049 55.7884C86.0448 54.8456 86.3508 53.9333 86.8873 53.157C87.4239 52.3807 88.1692 51.7721 89.0371 51.4016C89.905 51.031 90.86 50.9137 91.7918 51.063C92.7236 51.2124 93.5941 51.6224 94.3027 52.2457C95.0113 52.8689 95.529 53.68 95.796 54.5851C96.0631 55.4902 96.0685 56.4524 95.8118 57.3605C95.555 58.2686 95.0465 59.0854 94.345 59.7167C95.1283 60.4033 96.1517 61 97.3417 61C100.158 61 100.158 57.6667 102.975 57.6667C104.77 57.6667 106.183 59.0233 106.973 60.005L107.127 60.225C107.478 58.875 107.667 57.46 107.667 56C107.667 46.795 100.205 39.3333 91 39.3333Z" fill="#505050"/>
<path d="M86.6467 58.5C85.345 59.4867 83.02 61 81 61C78.2783 61 75.0067 58.2533 74.425 57.7467C75.2983 66.13 82.3867 72.6667 91 72.6667C98.745 72.6667 105.257 67.3833 107.127 60.225L106.973 60.005C106.185 59.0217 104.77 57.6667 102.973 57.6667C100.158 57.6667 100.158 61 97.3433 61C96.1533 61 95.13 60.405 94.3467 59.7167C93.792 60.2158 93.1327 60.5845 92.417 60.7956C91.7013 61.0068 90.9474 61.0551 90.2107 60.937C89.4739 60.8189 88.7729 60.5373 88.1591 60.1131C87.5453 59.6888 87.0342 59.1325 86.6633 58.485L86.6467 58.5ZM103.547 45.0283L103.45 45.1167L101.783 46.7833C101.661 46.8978 101.562 47.0358 101.494 47.1891C101.425 47.3424 101.389 47.508 101.386 47.6758C101.383 47.8436 101.414 48.0104 101.476 48.166C101.539 48.3217 101.633 48.463 101.752 48.5817C101.87 48.7004 102.012 48.794 102.167 48.8569C102.323 48.9198 102.49 48.9506 102.658 48.9477C102.825 48.9447 102.991 48.908 103.144 48.8396C103.298 48.7713 103.436 48.6728 103.55 48.55L105.058 47.0433C104.604 46.3322 104.1 45.6606 103.547 45.0283ZM80.0283 43.4533C80.0561 43.4867 80.0856 43.5189 80.1167 43.55L81.7833 45.2167C82.0203 45.4375 82.3337 45.5577 82.6575 45.552C82.9814 45.5463 83.2904 45.4151 83.5194 45.186C83.7484 44.957 83.8796 44.6481 83.8853 44.3242C83.891 44.0004 83.7708 43.687 83.55 43.45L82.0433 41.9417C81.3322 42.3972 80.6606 42.9011 80.0283 43.4533ZM88.45 43.55C88.3272 43.4356 88.2287 43.2976 88.1604 43.1442C88.092 42.9909 88.0553 42.8254 88.0524 42.6575C88.0494 42.4897 88.0803 42.323 88.1431 42.1673C88.206 42.0117 88.2996 41.8703 88.4183 41.7516C88.537 41.6329 88.6784 41.5393 88.834 41.4765C88.9897 41.4136 89.1564 41.3827 89.3242 41.3857C89.492 41.3887 89.6576 41.4254 89.8109 41.4937C89.9642 41.562 90.1022 41.6605 90.2167 41.7833L91.8833 43.45C92.0061 43.5644 92.1047 43.7024 92.173 43.8558C92.2413 44.0091 92.278 44.1746 92.281 44.3425C92.284 44.5103 92.2531 44.677 92.1902 44.8327C92.1273 44.9883 92.0338 45.1297 91.9151 45.2484C91.7964 45.3671 91.655 45.4607 91.4993 45.5236C91.3437 45.5864 91.177 45.6173 91.0091 45.6143C90.8413 45.6114 90.6758 45.5746 90.5224 45.5063C90.3691 45.438 90.2311 45.3395 90.1167 45.2167L88.45 43.55ZM98.6667 45.0833C98.7652 44.952 98.8368 44.8026 98.8776 44.6436C98.9183 44.4846 98.9273 44.3191 98.9041 44.1566C98.8809 43.9941 98.8259 43.8377 98.7423 43.6965C98.6586 43.5552 98.548 43.4318 98.4167 43.3333C98.2853 43.2349 98.1359 43.1632 97.9769 43.1225C97.8179 43.0817 97.6524 43.0727 97.4899 43.0959C97.3274 43.1191 97.1711 43.1741 97.0298 43.2578C96.8886 43.3414 96.7652 43.452 96.6667 43.5833L94.1667 46.9167C93.9678 47.1819 93.8823 47.5153 93.9292 47.8435C93.9761 48.1716 94.1515 48.4678 94.4167 48.6667C94.6819 48.8656 95.0153 48.951 95.3434 48.9041C95.6716 48.8572 95.9678 48.6819 96.1667 48.4167L98.6667 45.0833ZM85.0167 48.6C85.1026 48.9199 85.312 49.1927 85.5989 49.3583C85.8858 49.5239 86.2266 49.5689 86.5467 49.4833L88.8233 48.8733C88.9869 48.8356 89.1411 48.7653 89.2769 48.6667C89.4127 48.568 89.5272 48.4431 89.6137 48.2992C89.7001 48.1553 89.7567 47.9955 89.7801 47.8293C89.8034 47.6631 89.7931 47.4939 89.7496 47.3318C89.7062 47.1697 89.6306 47.018 89.5272 46.8858C89.4239 46.7535 89.295 46.6434 89.1482 46.5621C89.0014 46.4807 88.8397 46.4297 88.6728 46.4122C88.5059 46.3947 88.3372 46.4109 88.1767 46.46L85.9 47.07C85.5801 47.1559 85.3074 47.3653 85.1417 47.6522C84.9761 47.9391 84.9311 48.28 85.0167 48.6ZM100.11 53.2567C100.118 53.4207 100.093 53.5847 100.037 53.7392C99.9815 53.8936 99.896 54.0356 99.7854 54.1571C99.6748 54.2785 99.5414 54.3769 99.3928 54.4468C99.2441 54.5166 99.0832 54.5565 98.9192 54.5642C98.7551 54.5718 98.5912 54.5471 98.4367 54.4914C98.2822 54.4357 98.1402 54.3501 98.0188 54.2396C97.8974 54.129 97.7989 53.9956 97.7291 53.8469C97.6592 53.6983 97.6193 53.5374 97.6117 53.3733L97.5017 51.02C97.4936 50.6934 97.6138 50.3766 97.8365 50.1374C98.0591 49.8983 98.3666 49.7559 98.6929 49.7406C99.0193 49.7253 99.3387 49.8385 99.5827 50.0558C99.8267 50.2732 99.9759 50.5774 99.9983 50.9033L100.11 53.2567ZM101.728 56.0983C101.837 56.2216 101.969 56.3223 102.116 56.3947C102.264 56.467 102.424 56.5096 102.588 56.5199C102.752 56.5303 102.916 56.5083 103.071 56.4551C103.227 56.4019 103.37 56.3186 103.493 56.21L106.29 53.7467C106.413 53.6381 106.514 53.5064 106.586 53.3589C106.658 53.2114 106.701 53.0512 106.711 52.8873C106.722 52.7234 106.7 52.5591 106.647 52.4037C106.593 52.2483 106.51 52.1049 106.402 51.9817C106.293 51.8585 106.161 51.7578 106.014 51.6855C105.866 51.6132 105.706 51.5707 105.542 51.5603C105.378 51.5499 105.214 51.5719 105.059 51.6251C104.903 51.6782 104.76 51.7615 104.637 51.87L101.84 54.3333C101.717 54.4419 101.616 54.5736 101.544 54.7211C101.471 54.8685 101.429 55.0288 101.418 55.1927C101.408 55.3566 101.43 55.521 101.483 55.6764C101.536 55.8318 101.62 55.9752 101.728 56.0983ZM80.2083 49.6117C80.1341 49.4614 80.0909 49.2978 80.0811 49.1305C80.0714 48.9632 80.0954 48.7957 80.1518 48.6379C80.2081 48.4801 80.2956 48.3352 80.409 48.2118C80.5225 48.0885 80.6595 47.9892 80.8121 47.9199C80.9647 47.8506 81.1296 47.8127 81.2971 47.8084C81.4647 47.8042 81.6313 47.8336 81.7872 47.895C81.9431 47.9565 82.0851 48.0486 82.2047 48.166C82.3243 48.2834 82.419 48.4236 82.4833 48.5783L83.4583 50.7217C83.5307 50.8717 83.5723 51.0346 83.5808 51.2009C83.5893 51.3672 83.5645 51.5335 83.5079 51.6901C83.4512 51.8466 83.3638 51.9903 83.2509 52.1127C83.1379 52.235 83.0017 52.3336 82.8501 52.4025C82.6985 52.4715 82.5347 52.5094 82.3683 52.5142C82.2018 52.519 82.0361 52.4904 81.8808 52.4303C81.7256 52.3701 81.5839 52.2795 81.4641 52.1639C81.3443 52.0482 81.2489 51.9098 81.1833 51.7567L80.2083 49.6117Z" fill="#505050"/>
<path d="M82.5717 54.1583C82.839 54.3542 83.0177 54.6482 83.0683 54.9758C83.1189 55.3033 83.0374 55.6375 82.8417 55.905L81.45 57.8067C81.3545 57.9427 81.2328 58.0584 81.092 58.1469C80.9512 58.2353 80.7942 58.2948 80.6302 58.3219C80.4661 58.3489 80.2983 58.343 80.1366 58.3044C79.9749 58.2658 79.8225 58.1953 79.6884 58.0971C79.5542 57.9989 79.441 57.8749 79.3554 57.7323C79.2698 57.5898 79.2134 57.4317 79.1897 57.2671C79.1659 57.1026 79.1752 56.9349 79.2171 56.774C79.2589 56.6131 79.3324 56.4621 79.4333 56.33L80.825 54.43C81.0206 54.1624 81.3145 53.9834 81.6421 53.9324C81.9696 53.8815 82.304 53.9627 82.5717 54.1583ZM75.76 50.9667C75.7513 50.6416 75.8696 50.326 76.0898 50.0867C76.3101 49.8475 76.6149 49.7034 76.9395 49.6852C77.2642 49.667 77.5832 49.776 77.8288 49.9891C78.0744 50.2022 78.2273 50.5027 78.255 50.8267L78.3867 53.18C78.405 53.5111 78.2911 53.8359 78.0699 54.083C77.8488 54.33 77.5386 54.4791 77.2075 54.4975C76.8764 54.5158 76.5516 54.4019 76.3045 54.1808C76.0574 53.9596 75.9083 53.6494 75.89 53.3183L75.76 50.9667Z" fill="#505050"/>
</svg>
