<svg width="182" height="112" viewBox="0 0 182 112" fill="none" xmlns="http://www.w3.org/2000/svg">
<rect width="182" height="112" fill="#A7A7A7" fill-opacity="0.5"/>
<path d="M95.1667 72.6517V66.8333C95.1667 65.275 95.1667 64.4967 94.8317 63.9167C94.6123 63.5366 94.2967 63.2211 93.9167 63.0017C93.3367 62.6667 92.5583 62.6667 91 62.6667C89.4417 62.6667 88.6633 62.6667 88.0833 63.0017C87.7033 63.2211 87.3877 63.5366 87.1683 63.9167C86.8333 64.4967 86.8333 65.275 86.8333 66.8333V72.6517H95.1667Z" fill="#505050"/>
<path opacity="0.5" fill-rule="evenodd" clip-rule="evenodd" d="M80.5533 56C79.07 56 77.755 55.3733 76.8333 54.3883V59.3333C76.8333 65.6183 76.8333 68.7617 78.7867 70.7133C80.3583 72.2867 82.7 72.5917 86.8333 72.6517H95.1667C99.3 72.5917 101.642 72.285 103.213 70.7133C105.167 68.7617 105.167 65.6183 105.167 59.3333V54.39C104.497 55.1034 103.635 55.6089 102.686 55.8462C101.736 56.0834 100.738 56.0424 99.8114 55.7281C98.8845 55.4137 98.0676 54.8393 97.4583 54.0733C96.8489 53.3073 96.4729 52.3822 96.375 51.4083L96.2533 50.195C96.3253 50.9256 96.2441 51.6632 96.0149 52.3606C95.7857 53.058 95.4135 53.6999 94.9221 54.2454C94.4308 54.7908 93.831 55.2277 93.1612 55.5283C92.4914 55.8288 91.7663 55.9863 91.0322 55.9907C90.2981 55.9951 89.5712 55.8464 88.8978 55.5539C88.2245 55.2615 87.6195 54.8318 87.1216 54.2924C86.6237 53.7529 86.2438 53.1155 86.0062 52.4209C85.7686 51.7263 85.6785 50.9897 85.7417 50.2583L85.6267 51.4083C85.5006 52.6664 84.9118 53.8328 83.9743 54.6813C83.0369 55.5297 81.8177 55.9997 80.5533 56ZM95.1667 66.8333V72.6517H86.8333V66.8333C86.8333 65.275 86.8333 64.4967 87.1683 63.9167C87.3877 63.5367 87.7033 63.2211 88.0833 63.0017C88.6633 62.6667 89.4417 62.6667 91 62.6667C92.5583 62.6667 93.3367 62.6667 93.9167 63.0017C94.2967 63.2211 94.6123 63.5367 94.8317 63.9167C95.1667 64.4967 95.1667 65.275 95.1667 66.8333Z" fill="#505050"/>
<path d="M86.8333 39.3333H95.1667L96.2533 50.195C96.3249 50.928 96.2423 51.6678 96.0109 52.3669C95.7795 53.066 95.4043 53.709 94.9096 54.2544C94.4148 54.7999 93.8113 55.2358 93.138 55.5341C92.4647 55.8324 91.7364 55.9865 91 55.9865C90.2636 55.9865 89.5353 55.8324 88.862 55.5341C88.1887 55.2358 87.5852 54.7999 87.0904 54.2544C86.5957 53.709 86.2205 53.066 85.9891 52.3669C85.7576 51.6678 85.6751 50.928 85.7467 50.195L86.8333 39.3333Z" fill="#505050"/>
<path opacity="0.7" d="M76.55 44.9183C76.8467 43.435 76.995 42.6933 77.2967 42.0917C77.6112 41.4649 78.054 40.9113 78.5964 40.4668C79.1388 40.0223 79.7686 39.6969 80.445 39.5117C81.095 39.3333 81.85 39.3333 83.3633 39.3333H86.835L85.6267 51.4083C85.561 52.0979 85.3555 52.7669 85.0228 53.3745C84.6901 53.9821 84.2371 54.5155 83.6914 54.9423C83.1457 55.369 82.5188 55.6801 81.849 55.8566C81.1791 56.0331 80.4803 56.0713 79.7952 55.9688C79.1101 55.8663 78.4531 55.6254 77.8642 55.2606C77.2753 54.8958 76.7668 54.4149 76.3699 53.8472C75.973 53.2795 75.6959 52.6368 75.5555 51.9585C75.4151 51.2802 75.4143 50.5803 75.5533 49.9017L76.55 44.9183ZM105.45 44.9183C105.153 43.435 105.005 42.6933 104.703 42.0917C104.389 41.4651 103.946 40.9116 103.404 40.4671C102.862 40.0226 102.233 39.6971 101.557 39.5117C100.907 39.3333 100.15 39.3333 98.6367 39.3333H95.1667L96.375 51.4083C96.4388 52.0994 96.6429 52.7702 96.9749 53.3796C97.3069 53.989 97.7598 54.5242 98.3058 54.9525C98.8519 55.3809 99.4796 55.6932 100.151 55.8705C100.822 56.0478 101.522 56.0863 102.208 55.9836C102.894 55.8809 103.552 55.6392 104.142 55.2734C104.732 54.9075 105.241 54.4251 105.638 53.8558C106.034 53.2864 106.311 52.6421 106.45 51.9622C106.589 51.2823 106.588 50.5811 106.447 49.9017L105.45 44.9183Z" fill="#505050"/>
</svg>
