<?xml version="1.0" standalone="no"?>
<!DOCTYPE svg PUBLIC "-//W3C//DTD SVG 20010904//EN"
 "http://www.w3.org/TR/2001/REC-SVG-20010904/DTD/svg10.dtd">
<svg version="1.0" xmlns="http://www.w3.org/2000/svg"
 width="1024.000000pt" height="1024.000000pt" viewBox="0 0 1024.000000 1024.000000"
 preserveAspectRatio="xMidYMid meet">

<g transform="translate(0.000000,1024.000000) scale(0.100000,-0.100000)"
fill="#000000" stroke="none">
<path d="M4930 7704 c-302 -37 -407 -57 -573 -113 -175 -59 -312 -116 -488
-202 -529 -260 -764 -475 -958 -880 -115 -238 -216 -597 -247 -867 -5 -45 -11
-65 -23 -69 -9 -3 -63 -25 -121 -50 -351 -147 -710 -464 -862 -759 -234 -455
-30 -822 511 -919 159 -29 499 -40 847 -27 l317 11 46 -41 c83 -73 253 -179
401 -251 80 -38 146 -71 148 -72 1 -1 -27 -58 -64 -126 -59 -111 -104 -181
-219 -342 -68 -95 -71 -191 -11 -312 131 -262 449 -425 637 -327 134 70 175
222 101 368 -17 32 -37 68 -45 79 -14 18 -11 24 45 88 73 86 165 221 213 315
l36 71 47 -7 c26 -4 128 -7 227 -6 186 0 307 16 582 75 175 38 154 45 201 -63
54 -125 84 -223 122 -407 17 -85 41 -174 52 -198 61 -129 194 -152 464 -77
291 79 416 155 451 273 19 65 12 123 -21 196 -29 63 -78 103 -137 111 -37 5
-158 -10 -260 -32 l-25 -6 -32 184 c-18 101 -39 206 -46 233 l-12 50 115 68
c163 96 249 163 381 296 286 287 511 676 574 991 l12 65 100 53 c358 191 598
365 839 606 249 249 344 437 345 678 0 106 -19 186 -64 262 -36 61 -141 155
-218 193 -206 103 -582 152 -933 124 -158 -13 -338 -43 -392 -66 l-32 -13 -60
83 c-78 107 -196 232 -274 291 -71 54 -388 211 -557 277 -243 95 -692 185
-958 192 -81 2 -163 1 -182 -1z m530 -223 c392 -75 563 -130 910 -298 125 -60
141 -71 220 -152 198 -200 395 -499 463 -703 21 -62 104 -437 110 -497 2 -19
-367 -206 -668 -339 -555 -244 -1359 -543 -1796 -666 -535 -150 -1109 -255
-1564 -286 -174 -11 -158 -19 -206 104 -103 265 -141 599 -104 893 84 652 293
1120 615 1377 140 112 289 203 504 307 323 156 569 238 831 280 188 29 467 21
685 -20z m2425 -731 c253 -40 383 -89 463 -174 67 -70 86 -131 80 -245 -11
-175 -89 -313 -298 -522 -368 -369 -868 -652 -1868 -1055 -528 -213 -855 -315
-1631 -508 -704 -176 -1087 -234 -1682 -256 -648 -24 -976 37 -1133 210 -112
124 -107 308 13 510 156 262 483 542 759 649 l52 21 0 -118 -1 -117 -60 -45
c-129 -96 -243 -242 -279 -358 -33 -105 -22 -177 36 -249 40 -49 107 -84 219
-115 72 -19 105 -21 325 -22 135 0 301 5 370 12 785 79 1472 243 2300 550
1090 404 1730 713 2043 986 141 124 202 211 213 308 8 70 -8 125 -52 176 -91
106 -285 148 -489 106 -42 -9 -78 -14 -79 -12 -2 1 -24 45 -50 96 -25 51 -52
102 -59 113 -17 28 -4 34 127 53 259 39 462 40 681 6z m-313 -437 c91 -41 87
-98 -14 -204 -59 -61 -202 -175 -228 -181 -8 -2 -25 63 -51 191 -22 107 -37
196 -35 198 11 12 111 21 191 19 66 -2 103 -8 137 -23z m-4902 -1392 c0 -33
49 -210 84 -304 l34 -90 -86 6 c-103 7 -181 29 -219 61 -22 19 -27 31 -26 64
1 22 11 59 23 82 21 41 165 200 181 200 5 0 9 -9 9 -19z m4445 -23 c-18 -59
-101 -238 -152 -326 -171 -298 -376 -532 -591 -674 -201 -133 -544 -283 -795
-348 -139 -36 -440 -95 -567 -110 -283 -34 -804 84 -1165 262 -108 54 -265
142 -265 150 0 5 14 8 31 8 46 0 430 66 619 106 199 42 862 207 1085 270 506
142 1141 381 1671 628 66 31 123 56 127 56 5 0 5 -10 2 -22z m-1031 -1385 c3
-10 23 -119 46 -242 23 -124 46 -234 52 -245 30 -60 92 -69 238 -36 98 23 151
25 168 8 7 -7 12 -29 12 -51 0 -54 -36 -86 -140 -126 -94 -37 -339 -101 -383
-101 -65 0 -81 30 -123 230 -29 140 -80 308 -125 407 -16 37 -26 69 -22 73 4
4 44 20 88 35 44 15 98 36 120 46 51 23 63 23 69 2z m-1750 -178 c54 -14 101
-27 104 -30 18 -17 -124 -224 -240 -350 -77 -85 -80 -89 -75 -127 3 -24 22
-63 46 -98 78 -110 87 -168 34 -210 -67 -53 -228 11 -341 135 -63 68 -102 141
-102 187 1 22 14 51 41 88 90 125 177 262 233 366 l60 112 70 -25 c39 -13 115
-35 170 -48z"/>
<path d="M5934 6610 c-56 -22 -100 -116 -88 -189 25 -156 204 -193 266 -54 61
138 -53 294 -178 243z"/>
<path d="M4478 6315 c-69 -38 -96 -164 -54 -249 36 -72 137 -95 205 -47 86 62
78 234 -13 291 -39 23 -99 26 -138 5z"/>
</g>
</svg>
