<svg width="16" height="16" viewBox="0 0 16 16" fill="none" xmlns="http://www.w3.org/2000/svg">
<g clip-path="url(#clip0_27_147)">
<mask id="mask0_27_147" style="mask-type:luminance" maskUnits="userSpaceOnUse" x="0" y="0" width="16" height="16">
<path d="M16 0H0V16H16V0Z" fill="white"/>
</mask>
<g mask="url(#mask0_27_147)">
<path d="M7.33463 5.99935H8.66797V3.99935H10.668V2.66601H8.66797V0.666016H7.33463V2.66601H5.33463V3.99935H7.33463V5.99935ZM4.66797 11.9993C3.93463 11.9993 3.3413 12.5993 3.3413 13.3326C3.3413 14.066 3.93463 14.666 4.66797 14.666C5.4013 14.666 6.0013 14.066 6.0013 13.3326C6.0013 12.5993 5.4013 11.9993 4.66797 11.9993ZM11.3346 11.9993C10.6013 11.9993 10.008 12.5993 10.008 13.3326C10.008 14.066 10.6013 14.666 11.3346 14.666C12.068 14.666 12.668 14.066 12.668 13.3326C12.668 12.5993 12.068 11.9993 11.3346 11.9993ZM4.7813 9.83268L4.8013 9.75268L5.4013 8.66601H10.368C10.868 8.66601 11.308 8.39268 11.5346 7.97935L14.108 3.30601L12.948 2.66601H12.9413L12.208 3.99935L10.368 7.33268H5.68797L5.6013 7.15268L4.10797 3.99935L3.47463 2.66601L2.84797 1.33268H0.667969V2.66601H2.0013L4.4013 7.72601L3.5013 9.35935C3.39463 9.54601 3.33463 9.76601 3.33463 9.99934C3.33463 10.7326 3.93463 11.3326 4.66797 11.3326H12.668V9.99934H4.94797C4.8613 9.99934 4.7813 9.92601 4.7813 9.83268Z" fill="white"/>
</g>
</g>
<defs>
<clipPath id="clip0_27_147">
<rect width="16" height="16" fill="white"/>
</clipPath>
</defs>
</svg>
