<svg width="33" height="32" viewBox="0 0 33 32" fill="none" xmlns="http://www.w3.org/2000/svg">
<path d="M16.293 4C15.4832 4 14.7299 4.21154 14.0331 4.63462C13.3363 5.03846 12.7808 5.59615 12.3664 6.30769C11.971 7.01923 11.7732 7.78846 11.7732 8.61538V9.53846H7.30992L7.25342 10.4038L6.29297 28H26.293L25.3325 10.4038L25.276 9.53846H20.8128V8.61538C20.8128 7.78846 20.6056 7.01923 20.1913 6.30769C19.7958 5.59615 19.2497 5.03846 18.5529 4.63462C17.8561 4.21154 17.1028 4 16.293 4ZM16.293 5.84615C17.0463 5.84615 17.6866 6.11538 18.2139 6.65385C18.7412 7.19231 19.0049 7.84615 19.0049 8.61538V9.53846H13.5811V8.61538C13.5811 7.84615 13.8448 7.19231 14.3721 6.65385C14.8994 6.11538 15.5397 5.84615 16.293 5.84615ZM9.00484 11.3846H11.7732V14.1538H13.5811V11.3846H19.0049V14.1538H20.8128V11.3846H23.5811L24.3721 26.1538H8.21388L9.00484 11.3846Z" fill="white"/>
</svg>
