<svg width="14" height="15" viewBox="0 0 14 15" fill="none" xmlns="http://www.w3.org/2000/svg">
<path d="M7.12535 6.00001H8.45868V4.00001H10.4587V2.66667H8.45868V0.666672H7.12535V2.66667H5.12535V4.00001H7.12535V6.00001ZM4.45868 12C3.72535 12 3.13201 12.6 3.13201 13.3333C3.13201 14.0667 3.72535 14.6667 4.45868 14.6667C5.19201 14.6667 5.79201 14.0667 5.79201 13.3333C5.79201 12.6 5.19201 12 4.45868 12ZM11.1253 12C10.392 12 9.79868 12.6 9.79868 13.3333C9.79868 14.0667 10.392 14.6667 11.1253 14.6667C11.8587 14.6667 12.4587 14.0667 12.4587 13.3333C12.4587 12.6 11.8587 12 11.1253 12ZM4.57201 9.83334L4.59201 9.75334L5.19201 8.66667H10.1587C10.6587 8.66667 11.0987 8.39334 11.3253 7.98001L13.8987 3.30667L12.7387 2.66667H12.732L11.9987 4.00001L10.1587 7.33334H5.47868L5.39201 7.15334L3.89868 4.00001L3.26535 2.66667L2.63868 1.33334H0.458679V2.66667H1.79201L4.19201 7.72667L3.29201 9.36001C3.18535 9.54667 3.12535 9.76667 3.12535 10C3.12535 10.7333 3.72535 11.3333 4.45868 11.3333H12.4587V10H4.73868C4.65201 10 4.57201 9.92667 4.57201 9.83334Z" fill="white"/>
</svg>
