<svg width="16" height="16" viewBox="0 0 16 16" fill="none" xmlns="http://www.w3.org/2000/svg">
<path d="M15.1533 15.1523L1.84667 1.8457L1.33333 1.33237L0.846667 0.845703L0 1.69237L2.92667 4.61904L4.4 7.7257L3.5 9.35904C3.39333 9.5457 3.33333 9.7657 3.33333 9.99904C3.33333 10.7323 3.93333 11.3323 4.66667 11.3323H9.64L10.56 12.2523C10.2267 12.4923 10.0067 12.8857 10.0067 13.3323C10.0067 14.0657 10.6 14.6657 11.3333 14.6657C11.78 14.6657 12.1733 14.4457 12.4133 14.1057L14.3067 15.999L15.1533 15.1523ZM4.94667 9.99904C4.85333 9.99904 4.78 9.9257 4.78 9.83237L4.8 9.75237L5.4 8.6657H6.97333L8.30667 9.99904H4.94667ZM10.3667 8.6657C10.8667 8.6657 11.3067 8.39237 11.5333 7.97904L13.92 3.65237C13.9733 3.55904 14 3.4457 14 3.33237C14 2.9657 13.7 2.6657 13.3333 2.6657H4.36L10.3667 8.6657ZM4.66667 11.999C3.93333 11.999 3.34 12.599 3.34 13.3323C3.34 14.0657 3.93333 14.6657 4.66667 14.6657C5.4 14.6657 6 14.0657 6 13.3323C6 12.599 5.4 11.999 4.66667 11.999Z" fill="black"/>
</svg>
