<svg width="54" height="16" viewBox="0 0 54 16" fill="none" xmlns="http://www.w3.org/2000/svg">
<g clip-path="url(#clip0_30_139)">
<path d="M9.8114 10.86C9.8114 11.6733 9.6114 12.4133 9.2114 13.08C8.8114 13.7333 8.2114 14.2533 7.4114 14.64C6.6114 15.0133 5.60474 15.2 4.3914 15.2C3.8314 15.2 3.3114 15.1667 2.8314 15.1C2.3514 15.0333 1.8914 14.94 1.4514 14.82C1.02474 14.6867 0.60474 14.52 0.191406 14.32V11.22C0.911406 11.5533 1.64474 11.8333 2.3914 12.06C3.1514 12.2867 3.87807 12.4 4.5714 12.4C5.0114 12.4 5.36474 12.3467 5.6314 12.24C5.9114 12.12 6.1114 11.9667 6.2314 11.78C6.36474 11.58 6.4314 11.3533 6.4314 11.1C6.4314 10.7933 6.32474 10.5333 6.1114 10.32C5.9114 10.0933 5.6114 9.88 5.2114 9.68C4.8114 9.46667 4.32474 9.22667 3.7514 8.96C3.32474 8.77333 2.90474 8.56 2.4914 8.32C2.0914 8.06667 1.72474 7.78 1.3914 7.46C1.0714 7.12667 0.811406 6.73333 0.611406 6.28C0.42474 5.81333 0.331406 5.26667 0.331406 4.64C0.331406 3.74667 0.538073 3 0.951406 2.4C1.37807 1.78667 1.9714 1.32 2.7314 0.999999C3.4914 0.679999 4.38474 0.519999 5.4114 0.519999C6.2514 0.519999 7.02474 0.613333 7.7314 0.799999C8.43807 0.986666 9.12474 1.22667 9.7914 1.52L8.7114 4.18C8.0714 3.9 7.4714 3.68667 6.9114 3.54C6.36474 3.38 5.8314 3.3 5.3114 3.3C4.9514 3.3 4.6514 3.35333 4.4114 3.46C4.1714 3.55333 3.9914 3.69333 3.8714 3.88C3.7514 4.05333 3.6914 4.26 3.6914 4.5C3.6914 4.78 3.78474 5.02667 3.9714 5.24C4.15807 5.44 4.4514 5.64667 4.8514 5.86C5.2514 6.07333 5.77807 6.33333 6.4314 6.64C7.13807 6.96 7.74474 7.30667 8.2514 7.68C8.75807 8.05333 9.14474 8.49333 9.4114 9C9.67807 9.49333 9.8114 10.1133 9.8114 10.86ZM24.1809 15H20.7809V9H15.6609V15H12.2409V0.719999H15.6609V6.18H20.7809V0.719999H24.1809V15ZM40.6739 7.84C40.6739 8.94667 40.5406 9.95333 40.2739 10.86C40.0072 11.7533 39.5939 12.5267 39.0339 13.18C38.4739 13.8333 37.7606 14.3333 36.8939 14.68C36.0272 15.0267 35.0006 15.2 33.8139 15.2C32.6406 15.2 31.6206 15.0267 30.7539 14.68C29.8872 14.32 29.1739 13.82 28.6139 13.18C28.0539 12.5267 27.6339 11.7467 27.3539 10.84C27.0872 9.93333 26.9539 8.92667 26.9539 7.82C26.9539 6.34 27.1939 5.05333 27.6739 3.96C28.1672 2.86667 28.9206 2.02 29.9339 1.42C30.9606 0.806666 32.2606 0.5 33.8339 0.5C35.4206 0.5 36.7139 0.806666 37.7139 1.42C38.7272 2.02 39.4739 2.87333 39.9539 3.98C40.4339 5.07333 40.6739 6.36 40.6739 7.84ZM30.5339 7.84C30.5339 8.77333 30.6472 9.58 30.8739 10.26C31.1006 10.9267 31.4539 11.44 31.9339 11.8C32.4272 12.16 33.0539 12.34 33.8139 12.34C34.6006 12.34 35.2339 12.16 35.7139 11.8C36.1939 11.44 36.5406 10.9267 36.7539 10.26C36.9806 9.58 37.0939 8.77333 37.0939 7.84C37.0939 6.42667 36.8406 5.32 36.3339 4.52C35.8406 3.72 35.0072 3.32 33.8339 3.32C33.0606 3.32 32.4272 3.50667 31.9339 3.88C31.4539 4.24 31.1006 4.76 30.8739 5.44C30.6472 6.10667 30.5339 6.90667 30.5339 7.84ZM48.1919 0.719999C50.0185 0.719999 51.3652 1.12 52.2319 1.92C53.1119 2.70667 53.5519 3.80667 53.5519 5.22C53.5519 5.86 53.4585 6.47333 53.2719 7.06C53.0852 7.63333 52.7719 8.14667 52.3319 8.6C51.9052 9.05333 51.3385 9.41333 50.6319 9.68C49.9385 9.94667 49.0785 10.08 48.0519 10.08H46.8519V15H43.4519V0.719999H48.1919ZM48.0719 3.5H46.8519V7.3H47.7519C48.2185 7.3 48.6252 7.23333 48.9719 7.1C49.3319 6.96667 49.6119 6.75333 49.8119 6.46C50.0119 6.16667 50.1119 5.78667 50.1119 5.32C50.1119 4.73333 49.9452 4.28667 49.6119 3.98C49.2785 3.66 48.7652 3.5 48.0719 3.5Z" fill="white"/>
</g>
<defs>
<clipPath id="clip0_30_139">
<rect width="54" height="16" fill="white"/>
</clipPath>
</defs>
</svg>
