<svg width="14" height="15" viewBox="0 0 14 15" fill="none" xmlns="http://www.w3.org/2000/svg">
<path d="M7.12531 6.00001H8.45865V4.00001H10.4586V2.66667H8.45865V0.666672H7.12531V2.66667H5.12532V4.00001H7.12531V6.00001ZM4.45865 12C3.72532 12 3.13198 12.6 3.13198 13.3333C3.13198 14.0667 3.72532 14.6667 4.45865 14.6667C5.19198 14.6667 5.79198 14.0667 5.79198 13.3333C5.79198 12.6 5.19198 12 4.45865 12ZM11.1253 12C10.392 12 9.79865 12.6 9.79865 13.3333C9.79865 14.0667 10.392 14.6667 11.1253 14.6667C11.8586 14.6667 12.4586 14.0667 12.4586 13.3333C12.4586 12.6 11.8586 12 11.1253 12ZM4.57198 9.83334L4.59198 9.75334L5.19198 8.66667H10.1586C10.6586 8.66667 11.0986 8.39334 11.3253 7.98001L13.8986 3.30667L12.7386 2.66667H12.732L11.9986 4.00001L10.1586 7.33334H5.47865L5.39198 7.15334L3.89865 4.00001L3.26532 2.66667L2.63865 1.33334H0.458649V2.66667H1.79198L4.19198 7.72667L3.29198 9.36001C3.18532 9.54667 3.12532 9.76667 3.12532 10C3.12532 10.7333 3.72532 11.3333 4.45865 11.3333H12.4586V10H4.73865C4.65198 10 4.57198 9.92667 4.57198 9.83334Z" fill="white"/>
</svg>
