<svg width="16" height="16" viewBox="0 0 16 16" fill="none" xmlns="http://www.w3.org/2000/svg">
<g clip-path="url(#clip0_7853_96)">
<path d="M7.33333 6.00001H8.66667V4.00001H10.6667V2.66667H8.66667V0.666672H7.33333V2.66667H5.33333V4.00001H7.33333V6.00001ZM4.66667 12C3.93333 12 3.34 12.6 3.34 13.3333C3.34 14.0667 3.93333 14.6667 4.66667 14.6667C5.4 14.6667 6 14.0667 6 13.3333C6 12.6 5.4 12 4.66667 12ZM11.3333 12C10.6 12 10.0067 12.6 10.0067 13.3333C10.0067 14.0667 10.6 14.6667 11.3333 14.6667C12.0667 14.6667 12.6667 14.0667 12.6667 13.3333C12.6667 12.6 12.0667 12 11.3333 12ZM4.78 9.83334L4.8 9.75334L5.4 8.66667H10.3667C10.8667 8.66667 11.3067 8.39334 11.5333 7.98001L14.1067 3.30667L12.9467 2.66667H12.94L12.2067 4.00001L10.3667 7.33334H5.68667L5.6 7.15334L4.10667 4.00001L3.47333 2.66667L2.84667 1.33334H0.666668V2.66667H2L4.4 7.72667L3.5 9.36001C3.39333 9.54667 3.33333 9.76667 3.33333 10C3.33333 10.7333 3.93333 11.3333 4.66667 11.3333H12.6667V10H4.94667C4.86 10 4.78 9.92667 4.78 9.83334Z" fill="white"/>
</g>
<defs>
<clipPath id="clip0_7853_96">
<rect width="16" height="16" fill="white"/>
</clipPath>
</defs>
</svg>
