<svg width="59" height="25" viewBox="0 0 59 25" fill="none" xmlns="http://www.w3.org/2000/svg">
<rect y="0.852295" width="59" height="24" rx="4" fill="black"/>
<g clip-path="url(#clip0_8149_170)">
<path d="M15.3333 10.8523H16.6667V8.8523H18.6667V7.51896H16.6667V5.51896H15.3333V7.51896H13.3333V8.8523H15.3333V10.8523ZM12.6667 16.8523C11.9333 16.8523 11.34 17.4523 11.34 18.1856C11.34 18.919 11.9333 19.519 12.6667 19.519C13.4 19.519 14 18.919 14 18.1856C14 17.4523 13.4 16.8523 12.6667 16.8523ZM19.3333 16.8523C18.6 16.8523 18.0067 17.4523 18.0067 18.1856C18.0067 18.919 18.6 19.519 19.3333 19.519C20.0667 19.519 20.6667 18.919 20.6667 18.1856C20.6667 17.4523 20.0667 16.8523 19.3333 16.8523ZM12.78 14.6856L12.8 14.6056L13.4 13.519H18.3667C18.8667 13.519 19.3067 13.2456 19.5333 12.8323L22.1067 8.15896L20.9467 7.51896H20.94L20.2067 8.8523L18.3667 12.1856H13.6867L13.6 12.0056L12.1067 8.8523L11.4733 7.51896L10.8467 6.18563H8.66666V7.51896H9.99999L12.4 12.579L11.5 14.2123C11.3933 14.399 11.3333 14.619 11.3333 14.8523C11.3333 15.5856 11.9333 16.1856 12.6667 16.1856H20.6667V14.8523H12.9467C12.86 14.8523 12.78 14.779 12.78 14.6856Z" fill="white"/>
</g>
<path d="M34.768 11.5443L34.924 12.7923C33.568 13.0923 32.308 13.1523 29.86 13.1523H28.936V8.00429H33.856V9.27629H30.508V11.8803C32.476 11.8683 33.568 11.7963 34.768 11.5443ZM31.588 15.2523V17.0163H35.668V15.2523H31.588ZM30.028 18.2523V14.0043H37.216V18.2523H30.028ZM38.68 9.81629V11.1003H37.216V13.5243H35.632V7.32029H37.216V9.81629H38.68ZM40.1671 8.47229H45.4711C45.4711 11.8563 44.3311 14.6163 40.4071 16.5123L39.5791 15.2643C42.3991 13.9083 43.6231 12.1803 43.8511 9.73229H40.1671V8.47229ZM47.1631 7.32029H48.7591V18.3723H47.1631V7.32029Z" fill="white"/>
<defs>
<clipPath id="clip0_8149_170">
<rect width="16" height="16" fill="white" transform="translate(8 4.85229)"/>
</clipPath>
</defs>
</svg>
