<svg width="21" height="24" viewBox="0 0 21 24" fill="none" xmlns="http://www.w3.org/2000/svg">
<path d="M10.292 0C9.4822 0 8.7289 0.211538 8.0321 0.634615C7.33531 1.03846 6.77975 1.59615 6.36544 2.30769C5.96996 3.01923 5.77222 3.78846 5.77222 4.61538V5.53846H1.30894L1.25244 6.40385L0.291992 24H20.292L19.3315 6.40385L19.275 5.53846H14.8118V4.61538C14.8118 3.78846 14.6046 3.01923 14.1903 2.30769C13.7948 1.59615 13.2487 1.03846 12.5519 0.634615C11.8551 0.211538 11.1018 0 10.292 0ZM10.292 1.84615C11.0453 1.84615 11.6856 2.11538 12.2129 2.65385C12.7402 3.19231 13.0039 3.84615 13.0039 4.61538V5.53846H7.58013V4.61538C7.58013 3.84615 7.84378 3.19231 8.37109 2.65385C8.89839 2.11538 9.5387 1.84615 10.292 1.84615ZM3.00386 7.38462H5.77222V10.1538H7.58013V7.38462H13.0039V10.1538H14.8118V7.38462H17.5801L18.3711 22.1538H2.2129L3.00386 7.38462Z" fill="white"/>
</svg>
