<svg width="16" height="16" viewBox="0 0 16 16" fill="none" xmlns="http://www.w3.org/2000/svg">
<path d="M15.1533 15.0056L1.84667 1.69896L1.33333 1.18563L0.846667 0.698963L0 1.54563L2.92667 4.4723L4.4 7.57896L3.5 9.2123C3.39333 9.39896 3.33333 9.61896 3.33333 9.8523C3.33333 10.5856 3.93333 11.1856 4.66667 11.1856H9.64L10.56 12.1056C10.2267 12.3456 10.0067 12.739 10.0067 13.1856C10.0067 13.919 10.6 14.519 11.3333 14.519C11.78 14.519 12.1733 14.299 12.4133 13.959L14.3067 15.8523L15.1533 15.0056ZM4.94667 9.8523C4.85333 9.8523 4.78 9.77896 4.78 9.68563L4.8 9.60563L5.4 8.51896H6.97333L8.30667 9.8523H4.94667ZM10.3667 8.51896C10.8667 8.51896 11.3067 8.24563 11.5333 7.8323L13.92 3.50563C13.9733 3.4123 14 3.29896 14 3.18563C14 2.81896 13.7 2.51896 13.3333 2.51896H4.36L10.3667 8.51896ZM4.66667 11.8523C3.93333 11.8523 3.34 12.4523 3.34 13.1856C3.34 13.919 3.93333 14.519 4.66667 14.519C5.4 14.519 6 13.919 6 13.1856C6 12.4523 5.4 11.8523 4.66667 11.8523Z" fill="black"/>
</svg>
