<svg width="59" height="25" viewBox="0 0 59 25" fill="none" xmlns="http://www.w3.org/2000/svg">
<rect y="0.852295" width="59" height="24" rx="4" fill="#EAEAEA"/>
<g clip-path="url(#clip0_8149_261)">
<path d="M23.1533 20.0056L9.84667 6.69896L9.33333 6.18563L8.84667 5.69896L8 6.54563L10.9267 9.4723L12.4 12.579L11.5 14.2123C11.3933 14.399 11.3333 14.619 11.3333 14.8523C11.3333 15.5856 11.9333 16.1856 12.6667 16.1856H17.64L18.56 17.1056C18.2267 17.3456 18.0067 17.739 18.0067 18.1856C18.0067 18.919 18.6 19.519 19.3333 19.519C19.78 19.519 20.1733 19.299 20.4133 18.959L22.3067 20.8523L23.1533 20.0056ZM12.9467 14.8523C12.8533 14.8523 12.78 14.779 12.78 14.6856L12.8 14.6056L13.4 13.519H14.9733L16.3067 14.8523H12.9467ZM18.3667 13.519C18.8667 13.519 19.3067 13.2456 19.5333 12.8323L21.92 8.50563C21.9733 8.4123 22 8.29896 22 8.18563C22 7.81896 21.7 7.51896 21.3333 7.51896H12.36L18.3667 13.519ZM12.6667 16.8523C11.9333 16.8523 11.34 17.4523 11.34 18.1856C11.34 18.919 11.9333 19.519 12.6667 19.519C13.4 19.519 14 18.919 14 18.1856C14 17.4523 13.4 16.8523 12.6667 16.8523Z" fill="black"/>
</g>
<path d="M30.232 14.4123V12.0843H29.692V14.4123H30.232ZM30.232 10.8483V8.43629H31.372V15.6723H28.54V8.43629H29.692V10.8483H30.232ZM33.508 14.4123V12.0843H32.944V14.4123H33.508ZM33.508 10.8483V8.43629H34.648V15.6723H31.816V8.43629H32.944V10.8483H33.508ZM37.048 7.32029H38.416V18.3723H37.048V12.8883H36.484V17.8803H35.14V7.50029H36.484V11.6163H37.048V7.32029ZM40.1671 8.47229H45.4711C45.4711 11.8563 44.3311 14.6163 40.4071 16.5123L39.5791 15.2643C42.3991 13.9083 43.6231 12.1803 43.8511 9.73229H40.1671V8.47229ZM47.1631 7.32029H48.7591V18.3723H47.1631V7.32029Z" fill="black"/>
<defs>
<clipPath id="clip0_8149_261">
<rect width="16" height="16" fill="white" transform="translate(8 4.85229)"/>
</clipPath>
</defs>
</svg>
