<svg version="1.1" xmlns="http://www.w3.org/2000/svg" width="50" height="50" viewBox="0 0 50 50">
<path d="M42.48 7.52c0.534 0.463 0.839 0.925 0.903 1.637 0.045 1.089 -0.311 1.589 -1.023 2.372 -0.524 0.565 -1.072 1.107 -1.617 1.652l-0.386 0.387q-0.402 0.403 -0.804 0.805 -0.514 0.515 -1.027 1.03a524.902 524.902 0 0 1 -0.796 0.797 211.133 211.133 0 0 0 -0.379 0.38q-0.264 0.265 -0.53 0.53l-0.155 0.157c-0.613 0.608 -1.204 0.992 -2.077 1.032 -0.625 -0.017 -1.124 -0.184 -1.585 -0.613 -0.493 -0.546 -0.762 -1.015 -0.777 -1.767 0.076 -1.068 0.707 -1.713 1.438 -2.441l0.19 -0.192q0.308 -0.31 0.618 -0.619l0.433 -0.434q0.452 -0.453 0.905 -0.905 0.579 -0.578 1.156 -1.159 0.446 -0.448 0.893 -0.894a183.594 183.594 0 0 0 0.426 -0.427c0.198 -0.2 0.398 -0.398 0.597 -0.597l0.175 -0.177C40.043 7.099 41.236 6.784 42.48 7.52" fill="#000000"/>
<path d="M26.123 0.153C26.822 0.58 27.156 1.172 27.344 1.953c0.038 0.328 0.04 0.652 0.038 0.982l0.002 0.285c0.001 0.308 0 0.616 -0.001 0.924q0 0.323 0.001 0.647 0 0.676 -0.002 1.353c-0.002 0.576 -0.001 1.152 0.001 1.729 0.001 0.445 0.001 0.89 0 1.335q0 0.319 0.001 0.637c0.001 0.297 0 0.595 -0.002 0.892l0.002 0.263c-0.009 0.886 -0.226 1.569 -0.837 2.217 -0.504 0.456 -1.064 0.586 -1.728 0.573 -0.74 -0.072 -1.276 -0.461 -1.772 -0.997 -0.402 -0.649 -0.405 -1.271 -0.406 -2.012l-0.001 -0.285a899.566 899.566 0 0 1 -0.006 -2.938 448.535 448.535 0 0 0 -0.006 -1.738 357.52 357.52 0 0 1 -0.003 -1.34q0 -0.32 -0.002 -0.641c-0.002 -0.299 -0.001 -0.599 -0.001 -0.898l-0.003 -0.265c0.005 -0.815 0.174 -1.537 0.75 -2.139 0.742 -0.656 1.84 -0.792 2.755 -0.385" fill="#000000"/>
<path d="M26.384 36.675c0.55 0.454 0.851 0.894 0.959 1.607 0.015 0.309 0.015 0.618 0.016 0.927l0.001 0.281q0.002 0.46 0.003 0.92l0.002 0.641q0.001 0.672 0.002 1.344c0.001 0.573 0.003 1.145 0.006 1.718 0.002 0.442 0.002 0.883 0.003 1.325q0 0.316 0.002 0.633c0.002 0.296 0.001 0.592 0.001 0.888l0.003 0.261c-0.005 0.83 -0.154 1.633 -0.75 2.246 -0.614 0.53 -1.184 0.598 -1.989 0.571 -0.614 -0.07 -1.004 -0.293 -1.431 -0.733 -0.524 -0.685 -0.599 -1.503 -0.593 -2.339l-0.002 -0.282c-0.001 -0.304 0 -0.609 0.001 -0.913q0 -0.32 -0.001 -0.64 0 -0.669 0.002 -1.337c0.002 -0.57 0.001 -1.139 -0.001 -1.709 -0.001 -0.44 -0.001 -0.88 0 -1.32q0 -0.315 -0.001 -0.63c-0.001 -0.294 0 -0.588 0.002 -0.882l-0.002 -0.26c0.009 -0.883 0.228 -1.564 0.837 -2.21 0.835 -0.755 2.038 -0.743 2.931 -0.109" fill="#000000"/>
<path d="m39.209 22.641 0.281 -0.001q0.46 -0.002 0.92 -0.003l0.641 -0.002q0.672 -0.001 1.344 -0.002c0.573 -0.001 1.145 -0.003 1.718 -0.006 0.442 -0.002 0.883 -0.002 1.325 -0.003q0.316 0 0.633 -0.002c0.296 -0.002 0.592 -0.001 0.888 -0.001l0.261 -0.003c0.83 0.005 1.633 0.154 2.246 0.75 0.53 0.614 0.598 1.184 0.571 1.989 -0.07 0.614 -0.293 1.004 -0.733 1.431 -0.685 0.524 -1.503 0.599 -2.339 0.593l-0.282 0.002c-0.304 0.001 -0.609 0 -0.913 -0.001q-0.32 0 -0.64 0.001 -0.669 0 -1.337 -0.002c-0.57 -0.002 -1.139 -0.001 -1.709 0.001 -0.44 0.001 -0.88 0.001 -1.32 0q-0.315 0 -0.63 0.001c-0.294 0.001 -0.588 0 -0.882 -0.002l-0.26 0.002c-0.883 -0.009 -1.564 -0.228 -2.21 -0.837 -0.456 -0.504 -0.587 -1.064 -0.573 -1.728 0.072 -0.74 0.461 -1.276 0.997 -1.772 0.646 -0.4 1.264 -0.405 2.002 -0.406" fill="#000000"/>
<path d="m3.003 22.629 0.278 -0.001c0.302 -0.001 0.604 -0.001 0.905 -0.001l0.633 -0.001q0.663 -0.001 1.325 0c0.564 0.001 1.129 -0.001 1.693 -0.003 0.436 -0.001 0.872 -0.002 1.308 -0.001q0.312 0 0.624 -0.001c0.292 -0.001 0.583 -0.001 0.875 0.001l0.257 -0.002c0.877 0.007 1.669 0.194 2.312 0.812 0.4 0.493 0.634 1.121 0.593 1.76 -0.131 0.721 -0.409 1.232 -0.956 1.718 -0.69 0.393 -1.422 0.48 -2.203 0.475l-0.279 0.002c-0.301 0.001 -0.601 0 -0.902 -0.001q-0.316 0 -0.632 0.001 -0.661 0 -1.322 -0.002a277.637 277.637 0 0 0 -1.688 0.001c-0.435 0.001 -0.87 0.001 -1.305 0q-0.311 0 -0.622 0.001c-0.291 0.001 -0.581 0 -0.872 -0.002l-0.256 0.002c-0.73 -0.008 -1.398 -0.143 -2.018 -0.54 -0.534 -0.571 -0.781 -1.043 -0.818 -1.837 0.03 -0.764 0.274 -1.292 0.817 -1.828 0.657 -0.521 1.447 -0.551 2.253 -0.549" fill="#000000"/>
<path d="m34.552 32.288 0.344 -0.008c0.795 0.1 1.314 0.554 1.86 1.109l0.204 0.203c0.22 0.22 0.439 0.441 0.658 0.662q0.23 0.231 0.461 0.461 0.482 0.482 0.962 0.966a413.965 413.965 0 0 0 1.233 1.237q0.475 0.476 0.95 0.952 0.227 0.228 0.455 0.456 0.318 0.318 0.634 0.638l0.19 0.189c0.595 0.603 0.868 1.083 0.889 1.937 -0.009 0.67 -0.141 1.096 -0.604 1.584 -0.536 0.493 -0.963 0.714 -1.703 0.723l-0.316 0.008c-0.786 -0.105 -1.307 -0.567 -1.848 -1.115l-0.207 -0.205a138.867 138.867 0 0 1 -0.668 -0.669q-0.234 -0.233 -0.467 -0.466 -0.488 -0.488 -0.975 -0.977a322.559 322.559 0 0 0 -1.25 -1.249 360.84 360.84 0 0 1 -0.963 -0.963 170.898 170.898 0 0 0 -0.461 -0.46 123.633 123.633 0 0 1 -0.643 -0.646l-0.192 -0.19c-0.557 -0.568 -0.809 -1.072 -0.81 -1.888 0.017 -0.685 0.121 -1.14 0.594 -1.641 0.52 -0.475 0.966 -0.64 1.676 -0.648" fill="#000000"/>
<path d="M16.553 32.477c0.543 0.329 0.931 0.806 1.123 1.41 0.033 0.319 0.033 0.319 0.037 0.665l0.008 0.344c-0.1 0.795 -0.554 1.314 -1.109 1.86l-0.203 0.204c-0.22 0.22 -0.441 0.439 -0.662 0.658l-0.461 0.461q-0.482 0.482 -0.966 0.962a413.965 413.965 0 0 0 -1.237 1.233 626.27 626.27 0 0 1 -0.952 0.95q-0.228 0.227 -0.456 0.455 -0.318 0.318 -0.638 0.634l-0.189 0.19c-0.603 0.595 -1.083 0.868 -1.937 0.889 -0.67 -0.009 -1.096 -0.141 -1.584 -0.604 -0.58 -0.63 -0.729 -1.119 -0.71 -1.973 0.107 -1.293 1.565 -2.334 2.428 -3.202l0.207 -0.209q0.542 -0.545 1.086 -1.09c0.373 -0.374 0.744 -0.749 1.115 -1.124 0.287 -0.29 0.575 -0.579 0.863 -0.867q0.206 -0.207 0.411 -0.414c0.191 -0.194 0.384 -0.386 0.577 -0.578l0.168 -0.172c0.83 -0.819 1.957 -1.18 3.08 -0.681" fill="#000000"/>
</svg>