<svg width="54" height="16" viewBox="0 0 54 16" fill="none" xmlns="http://www.w3.org/2000/svg">
<path d="M9.81199 10.86C9.81199 11.6733 9.61199 12.4133 9.21199 13.08C8.81199 13.7333 8.21199 14.2533 7.41199 14.64C6.61199 15.0133 5.60533 15.2 4.39199 15.2C3.83199 15.2 3.31199 15.1667 2.83199 15.1C2.35199 15.0333 1.89199 14.94 1.45199 14.82C1.02533 14.6867 0.605326 14.52 0.191992 14.32V11.22C0.911992 11.5533 1.64533 11.8333 2.39199 12.06C3.15199 12.2867 3.87866 12.4 4.57199 12.4C5.01199 12.4 5.36533 12.3467 5.63199 12.24C5.91199 12.12 6.11199 11.9667 6.23199 11.78C6.36533 11.58 6.43199 11.3533 6.43199 11.1C6.43199 10.7933 6.32533 10.5333 6.11199 10.32C5.91199 10.0933 5.61199 9.88 5.21199 9.68C4.81199 9.46667 4.32533 9.22667 3.75199 8.96C3.32533 8.77333 2.90533 8.56 2.49199 8.32C2.09199 8.06667 1.72533 7.78 1.39199 7.46C1.07199 7.12667 0.811992 6.73333 0.611992 6.28C0.425326 5.81333 0.331992 5.26667 0.331992 4.64C0.331992 3.74667 0.538659 3 0.951992 2.4C1.37866 1.78667 1.97199 1.32 2.73199 0.999999C3.49199 0.679999 4.38533 0.519999 5.41199 0.519999C6.25199 0.519999 7.02533 0.613333 7.73199 0.799999C8.43866 0.986666 9.12533 1.22667 9.79199 1.52L8.71199 4.18C8.07199 3.9 7.47199 3.68667 6.91199 3.54C6.36533 3.38 5.83199 3.3 5.31199 3.3C4.95199 3.3 4.65199 3.35333 4.41199 3.46C4.17199 3.55333 3.99199 3.69333 3.87199 3.88C3.75199 4.05333 3.69199 4.26 3.69199 4.5C3.69199 4.78 3.78533 5.02667 3.97199 5.24C4.15866 5.44 4.45199 5.64667 4.85199 5.86C5.25199 6.07333 5.77866 6.33333 6.43199 6.64C7.13866 6.96 7.74533 7.30667 8.25199 7.68C8.75866 8.05333 9.14533 8.49333 9.41199 9C9.67866 9.49333 9.81199 10.1133 9.81199 10.86ZM24.1815 15H20.7815V9H15.6615V15H12.2415V0.719999H15.6615V6.18H20.7815V0.719999H24.1815V15ZM40.6745 7.84C40.6745 8.94667 40.5412 9.95333 40.2745 10.86C40.0078 11.7533 39.5945 12.5267 39.0345 13.18C38.4745 13.8333 37.7612 14.3333 36.8945 14.68C36.0278 15.0267 35.0012 15.2 33.8145 15.2C32.6412 15.2 31.6212 15.0267 30.7545 14.68C29.8878 14.32 29.1745 13.82 28.6145 13.18C28.0545 12.5267 27.6345 11.7467 27.3545 10.84C27.0878 9.93333 26.9545 8.92667 26.9545 7.82C26.9545 6.34 27.1945 5.05333 27.6745 3.96C28.1678 2.86667 28.9212 2.02 29.9345 1.42C30.9612 0.806666 32.2612 0.5 33.8345 0.5C35.4212 0.5 36.7145 0.806666 37.7145 1.42C38.7278 2.02 39.4745 2.87333 39.9545 3.98C40.4345 5.07333 40.6745 6.36 40.6745 7.84ZM30.5345 7.84C30.5345 8.77333 30.6478 9.58 30.8745 10.26C31.1012 10.9267 31.4545 11.44 31.9345 11.8C32.4278 12.16 33.0545 12.34 33.8145 12.34C34.6012 12.34 35.2345 12.16 35.7145 11.8C36.1945 11.44 36.5412 10.9267 36.7545 10.26C36.9812 9.58 37.0945 8.77333 37.0945 7.84C37.0945 6.42667 36.8412 5.32 36.3345 4.52C35.8412 3.72 35.0078 3.32 33.8345 3.32C33.0612 3.32 32.4278 3.50667 31.9345 3.88C31.4545 4.24 31.1012 4.76 30.8745 5.44C30.6478 6.10667 30.5345 6.90667 30.5345 7.84ZM48.1925 0.719999C50.0191 0.719999 51.3658 1.12 52.2325 1.92C53.1125 2.70667 53.5525 3.80667 53.5525 5.22C53.5525 5.86 53.4591 6.47333 53.2725 7.06C53.0858 7.63333 52.7725 8.14667 52.3325 8.6C51.9058 9.05333 51.3391 9.41333 50.6325 9.68C49.9391 9.94667 49.0791 10.08 48.0525 10.08H46.8525V15H43.4525V0.719999H48.1925ZM48.0725 3.5H46.8525V7.3H47.7525C48.2191 7.3 48.6258 7.23333 48.9725 7.1C49.3325 6.96667 49.6125 6.75333 49.8125 6.46C50.0125 6.16667 50.1125 5.78667 50.1125 5.32C50.1125 4.73333 49.9458 4.28667 49.6125 3.98C49.2791 3.66 48.7658 3.5 48.0725 3.5Z" fill="white"/>
</svg>
