<svg width="33" height="32" viewBox="0 0 33 32" fill="none" xmlns="http://www.w3.org/2000/svg">
<path d="M16.292 4C15.4822 4 14.7289 4.21154 14.0321 4.63462C13.3353 5.03846 12.7798 5.59615 12.3654 6.30769C11.97 7.01923 11.7722 7.78846 11.7722 8.61538V9.53846H7.30894L7.25244 10.4038L6.29199 28H26.292L25.3315 10.4038L25.275 9.53846H20.8118V8.61538C20.8118 7.78846 20.6046 7.01923 20.1903 6.30769C19.7948 5.59615 19.2487 5.03846 18.5519 4.63462C17.8551 4.21154 17.1018 4 16.292 4ZM16.292 5.84615C17.0453 5.84615 17.6856 6.11538 18.2129 6.65385C18.7402 7.19231 19.0039 7.84615 19.0039 8.61538V9.53846H13.5801V8.61538C13.5801 7.84615 13.8438 7.19231 14.3711 6.65385C14.8984 6.11538 15.5387 5.84615 16.292 5.84615ZM9.00386 11.3846H11.7722V14.1538H13.5801V11.3846H19.0039V14.1538H20.8118V11.3846H23.5801L24.3711 26.1538H8.2129L9.00386 11.3846Z" fill="white"/>
</svg>
